<mxfile host="app.diagrams.net" modified="2023-11-06T03:43:31.897Z" agent="Mozilla/5.0 (Windows NT 10.0; Win64; x64) AppleWebKit/537.36 (KHTML, like Gecko) Chrome/119.0.0.0 Safari/537.36" etag="WIoblmuE9MvTlTyZNRQc" version="22.0.8" type="github">
  <diagram name="Page-1" id="X7dNlaw1ycAOgsmjk5F8">
    <mxGraphModel dx="1257" dy="651" grid="1" gridSize="10" guides="1" tooltips="1" connect="1" arrows="1" fold="1" page="1" pageScale="1" pageWidth="850" pageHeight="1100" math="0" shadow="0">
      <root>
        <mxCell id="0" />
        <mxCell id="1" parent="0" />
        <mxCell id="vP9pcl3uwLg1Uck1mjrX-32" value="database" style="shape=datastore;whiteSpace=wrap;html=1;rounded=1;" vertex="1" parent="1">
          <mxGeometry x="620" y="70" width="60" height="60" as="geometry" />
        </mxCell>
        <mxCell id="vP9pcl3uwLg1Uck1mjrX-33" value="server" style="image;points=[];aspect=fixed;html=1;align=center;shadow=0;dashed=0;image=img/lib/allied_telesis/computer_and_terminals/Server_Desktop.svg;rounded=1;" vertex="1" parent="1">
          <mxGeometry x="440" y="70" width="47.33" height="60" as="geometry" />
        </mxCell>
        <mxCell id="vP9pcl3uwLg1Uck1mjrX-34" value="" style="endArrow=classic;html=1;rounded=1;" edge="1" parent="1">
          <mxGeometry width="50" height="50" relative="1" as="geometry">
            <mxPoint x="610" y="100" as="sourcePoint" />
            <mxPoint x="500" y="100" as="targetPoint" />
          </mxGeometry>
        </mxCell>
        <mxCell id="vP9pcl3uwLg1Uck1mjrX-35" value="" style="html=1;dashed=0;whitespace=wrap;fillColor=#2875E2;strokeColor=#ffffff;points=[[0.005,0.63,0],[0.1,0.2,0],[0.9,0.2,0],[0.5,0,0],[0.995,0.63,0],[0.72,0.99,0],[0.5,1,0],[0.28,0.99,0]];verticalLabelPosition=bottom;align=center;verticalAlign=top;shape=mxgraph.kubernetes.icon;prIcon=api;rounded=1;" vertex="1" parent="1">
          <mxGeometry x="330" y="40" width="50" height="48" as="geometry" />
        </mxCell>
        <mxCell id="vP9pcl3uwLg1Uck1mjrX-36" value="" style="endArrow=classic;html=1;rounded=1;" edge="1" parent="1">
          <mxGeometry width="50" height="50" relative="1" as="geometry">
            <mxPoint x="420" y="100" as="sourcePoint" />
            <mxPoint x="270" y="99.47" as="targetPoint" />
          </mxGeometry>
        </mxCell>
        <mxCell id="vP9pcl3uwLg1Uck1mjrX-37" value="website" style="verticalLabelPosition=bottom;html=1;verticalAlign=top;align=center;strokeColor=none;fillColor=#00BEF2;shape=mxgraph.azure.website_generic;pointerEvents=1;rounded=1;" vertex="1" parent="1">
          <mxGeometry x="170" y="70" width="70" height="60" as="geometry" />
        </mxCell>
        <mxCell id="vP9pcl3uwLg1Uck1mjrX-42" value="" style="edgeStyle=elbowEdgeStyle;elbow=vertical;endArrow=classic;html=1;curved=0;rounded=1;endSize=8;startSize=8;" edge="1" parent="1">
          <mxGeometry width="50" height="50" relative="1" as="geometry">
            <mxPoint x="210" y="170" as="sourcePoint" />
            <mxPoint x="440" y="280" as="targetPoint" />
            <Array as="points">
              <mxPoint x="390" y="230" />
            </Array>
          </mxGeometry>
        </mxCell>
        <mxCell id="vP9pcl3uwLg1Uck1mjrX-70" value="" style="edgeStyle=orthogonalEdgeStyle;rounded=1;orthogonalLoop=1;jettySize=auto;html=1;" edge="1" parent="1" source="vP9pcl3uwLg1Uck1mjrX-44" target="vP9pcl3uwLg1Uck1mjrX-69">
          <mxGeometry relative="1" as="geometry" />
        </mxCell>
        <mxCell id="vP9pcl3uwLg1Uck1mjrX-44" value="" style="verticalLabelPosition=bottom;html=1;verticalAlign=top;align=center;strokeColor=#36393d;fillColor=#ffcc99;shape=mxgraph.azure.website_generic;pointerEvents=1;rounded=1;" vertex="1" parent="1">
          <mxGeometry x="410" y="290" width="70" height="60" as="geometry" />
        </mxCell>
        <mxCell id="vP9pcl3uwLg1Uck1mjrX-45" value="Product List" style="whiteSpace=wrap;html=1;rounded=1;arcSize=50;align=center;verticalAlign=middle;strokeWidth=1;autosize=1;spacing=4;treeFolding=1;treeMoving=1;newEdgeStyle={&quot;edgeStyle&quot;:&quot;entityRelationEdgeStyle&quot;,&quot;startArrow&quot;:&quot;none&quot;,&quot;endArrow&quot;:&quot;none&quot;,&quot;segment&quot;:10,&quot;curved&quot;:1,&quot;sourcePerimeterSpacing&quot;:0,&quot;targetPerimeterSpacing&quot;:0};" vertex="1" parent="1">
          <mxGeometry x="555" y="280" width="110" height="30" as="geometry" />
        </mxCell>
        <mxCell id="vP9pcl3uwLg1Uck1mjrX-46" value="" style="edgeStyle=entityRelationEdgeStyle;startArrow=none;endArrow=none;segment=10;curved=1;sourcePerimeterSpacing=0;targetPerimeterSpacing=0;rounded=1;exitX=1.005;exitY=0.173;exitDx=0;exitDy=0;exitPerimeter=0;" edge="1" target="vP9pcl3uwLg1Uck1mjrX-45" parent="1" source="vP9pcl3uwLg1Uck1mjrX-44">
          <mxGeometry relative="1" as="geometry">
            <mxPoint x="530" y="302" as="sourcePoint" />
            <Array as="points">
              <mxPoint x="470" y="300" />
              <mxPoint x="500" y="300" />
              <mxPoint x="490" y="302" />
            </Array>
          </mxGeometry>
        </mxCell>
        <mxCell id="vP9pcl3uwLg1Uck1mjrX-47" value="Brand List" style="whiteSpace=wrap;html=1;rounded=1;arcSize=50;align=center;verticalAlign=middle;strokeWidth=1;autosize=1;spacing=4;treeFolding=1;treeMoving=1;newEdgeStyle={&quot;edgeStyle&quot;:&quot;entityRelationEdgeStyle&quot;,&quot;startArrow&quot;:&quot;none&quot;,&quot;endArrow&quot;:&quot;none&quot;,&quot;segment&quot;:10,&quot;curved&quot;:1,&quot;sourcePerimeterSpacing&quot;:0,&quot;targetPerimeterSpacing&quot;:0};" vertex="1" parent="1">
          <mxGeometry x="560" y="340" width="100" height="30" as="geometry" />
        </mxCell>
        <mxCell id="vP9pcl3uwLg1Uck1mjrX-48" value="" style="edgeStyle=entityRelationEdgeStyle;startArrow=none;endArrow=none;segment=10;curved=1;sourcePerimeterSpacing=0;targetPerimeterSpacing=0;rounded=1;exitX=1.057;exitY=0.728;exitDx=0;exitDy=0;exitPerimeter=0;" edge="1" target="vP9pcl3uwLg1Uck1mjrX-47" parent="1" source="vP9pcl3uwLg1Uck1mjrX-44">
          <mxGeometry relative="1" as="geometry">
            <mxPoint x="530" y="362" as="sourcePoint" />
          </mxGeometry>
        </mxCell>
        <mxCell id="vP9pcl3uwLg1Uck1mjrX-49" value="Category List" style="whiteSpace=wrap;html=1;rounded=1;arcSize=50;align=center;verticalAlign=middle;strokeWidth=1;autosize=1;spacing=4;treeFolding=1;treeMoving=1;newEdgeStyle={&quot;edgeStyle&quot;:&quot;entityRelationEdgeStyle&quot;,&quot;startArrow&quot;:&quot;none&quot;,&quot;endArrow&quot;:&quot;none&quot;,&quot;segment&quot;:10,&quot;curved&quot;:1,&quot;sourcePerimeterSpacing&quot;:0,&quot;targetPerimeterSpacing&quot;:0};" vertex="1" parent="1">
          <mxGeometry x="220" y="260" width="120" height="30" as="geometry" />
        </mxCell>
        <mxCell id="vP9pcl3uwLg1Uck1mjrX-50" value="" style="edgeStyle=entityRelationEdgeStyle;startArrow=none;endArrow=none;segment=10;curved=1;sourcePerimeterSpacing=0;targetPerimeterSpacing=0;rounded=1;exitX=0;exitY=0.333;exitDx=0;exitDy=0;exitPerimeter=0;" edge="1" target="vP9pcl3uwLg1Uck1mjrX-49" parent="1" source="vP9pcl3uwLg1Uck1mjrX-44">
          <mxGeometry relative="1" as="geometry">
            <mxPoint x="380" y="312.5" as="sourcePoint" />
            <Array as="points">
              <mxPoint x="400" y="310" />
              <mxPoint x="390" y="310" />
            </Array>
          </mxGeometry>
        </mxCell>
        <mxCell id="vP9pcl3uwLg1Uck1mjrX-51" value="Contact Us" style="whiteSpace=wrap;html=1;rounded=1;arcSize=50;align=center;verticalAlign=middle;strokeWidth=1;autosize=1;spacing=4;treeFolding=1;treeMoving=1;newEdgeStyle={&quot;edgeStyle&quot;:&quot;entityRelationEdgeStyle&quot;,&quot;startArrow&quot;:&quot;none&quot;,&quot;endArrow&quot;:&quot;none&quot;,&quot;segment&quot;:10,&quot;curved&quot;:1,&quot;sourcePerimeterSpacing&quot;:0,&quot;targetPerimeterSpacing&quot;:0};" vertex="1" parent="1">
          <mxGeometry x="220" y="310" width="100" height="30" as="geometry" />
        </mxCell>
        <mxCell id="vP9pcl3uwLg1Uck1mjrX-52" value="" style="edgeStyle=entityRelationEdgeStyle;startArrow=none;endArrow=none;segment=10;curved=1;sourcePerimeterSpacing=0;targetPerimeterSpacing=0;rounded=1;exitX=0;exitY=0.5;exitDx=0;exitDy=0;exitPerimeter=0;" edge="1" target="vP9pcl3uwLg1Uck1mjrX-51" parent="1" source="vP9pcl3uwLg1Uck1mjrX-44">
          <mxGeometry relative="1" as="geometry">
            <mxPoint x="390" y="320" as="sourcePoint" />
          </mxGeometry>
        </mxCell>
        <mxCell id="vP9pcl3uwLg1Uck1mjrX-53" value="CART" style="whiteSpace=wrap;html=1;rounded=1;arcSize=50;align=center;verticalAlign=middle;strokeWidth=1;autosize=1;spacing=4;treeFolding=1;treeMoving=1;newEdgeStyle={&quot;edgeStyle&quot;:&quot;entityRelationEdgeStyle&quot;,&quot;startArrow&quot;:&quot;none&quot;,&quot;endArrow&quot;:&quot;none&quot;,&quot;segment&quot;:10,&quot;curved&quot;:1,&quot;sourcePerimeterSpacing&quot;:0,&quot;targetPerimeterSpacing&quot;:0};" vertex="1" parent="1">
          <mxGeometry x="220" y="360" width="80" height="30" as="geometry" />
        </mxCell>
        <mxCell id="vP9pcl3uwLg1Uck1mjrX-54" value="" style="edgeStyle=entityRelationEdgeStyle;startArrow=none;endArrow=none;segment=10;curved=1;sourcePerimeterSpacing=0;targetPerimeterSpacing=0;rounded=1;exitX=0;exitY=0.679;exitDx=0;exitDy=0;exitPerimeter=0;" edge="1" target="vP9pcl3uwLg1Uck1mjrX-53" parent="1" source="vP9pcl3uwLg1Uck1mjrX-44">
          <mxGeometry relative="1" as="geometry">
            <mxPoint x="410" y="320" as="sourcePoint" />
            <Array as="points">
              <mxPoint x="410" y="330" />
              <mxPoint x="410" y="330" />
            </Array>
          </mxGeometry>
        </mxCell>
        <mxCell id="vP9pcl3uwLg1Uck1mjrX-55" value="Static Pages" style="whiteSpace=wrap;html=1;rounded=1;arcSize=50;align=center;verticalAlign=middle;strokeWidth=1;autosize=1;spacing=4;treeFolding=1;treeMoving=1;newEdgeStyle={&quot;edgeStyle&quot;:&quot;entityRelationEdgeStyle&quot;,&quot;startArrow&quot;:&quot;none&quot;,&quot;endArrow&quot;:&quot;none&quot;,&quot;segment&quot;:10,&quot;curved&quot;:1,&quot;sourcePerimeterSpacing&quot;:0,&quot;targetPerimeterSpacing&quot;:0};" vertex="1" parent="1">
          <mxGeometry x="525" y="230" width="110" height="30" as="geometry" />
        </mxCell>
        <mxCell id="vP9pcl3uwLg1Uck1mjrX-56" value="" style="edgeStyle=entityRelationEdgeStyle;startArrow=none;endArrow=none;segment=10;curved=1;sourcePerimeterSpacing=0;targetPerimeterSpacing=0;rounded=1;exitX=0.9;exitY=-0.025;exitDx=0;exitDy=0;exitPerimeter=0;" edge="1" target="vP9pcl3uwLg1Uck1mjrX-55" parent="1" source="vP9pcl3uwLg1Uck1mjrX-44">
          <mxGeometry relative="1" as="geometry">
            <mxPoint x="500" y="272" as="sourcePoint" />
            <Array as="points">
              <mxPoint x="480" y="280" />
            </Array>
          </mxGeometry>
        </mxCell>
        <mxCell id="vP9pcl3uwLg1Uck1mjrX-69" value="&lt;div style=&quot;&quot;&gt;&lt;br&gt;&lt;/div&gt;" style="rhombus;whiteSpace=wrap;html=1;verticalAlign=top;fillColor=#ffcc99;strokeColor=#36393d;align=left;rounded=1;" vertex="1" parent="1">
          <mxGeometry x="405" y="450" width="80" height="80" as="geometry" />
        </mxCell>
        <mxCell id="vP9pcl3uwLg1Uck1mjrX-75" value="Authentication" style="text;html=1;align=center;verticalAlign=middle;resizable=0;points=[];autosize=1;strokeColor=none;fillColor=none;" vertex="1" parent="1">
          <mxGeometry x="395" y="520" width="100" height="30" as="geometry" />
        </mxCell>
        <mxCell id="vP9pcl3uwLg1Uck1mjrX-76" value="" style="endArrow=classic;html=1;rounded=0;" edge="1" parent="1">
          <mxGeometry width="50" height="50" relative="1" as="geometry">
            <mxPoint x="490" y="490" as="sourcePoint" />
            <mxPoint x="630" y="490" as="targetPoint" />
          </mxGeometry>
        </mxCell>
        <mxCell id="vP9pcl3uwLg1Uck1mjrX-77" value="" style="endArrow=classic;html=1;rounded=0;exitX=0;exitY=0.5;exitDx=0;exitDy=0;" edge="1" parent="1" source="vP9pcl3uwLg1Uck1mjrX-69">
          <mxGeometry width="50" height="50" relative="1" as="geometry">
            <mxPoint x="400" y="490" as="sourcePoint" />
            <mxPoint x="230" y="490" as="targetPoint" />
          </mxGeometry>
        </mxCell>
        <mxCell id="vP9pcl3uwLg1Uck1mjrX-78" value="Admin" style="sketch=0;outlineConnect=0;fontColor=#232F3E;gradientColor=none;fillColor=#232F3D;strokeColor=none;dashed=0;verticalLabelPosition=bottom;verticalAlign=top;align=center;html=1;fontSize=12;fontStyle=0;aspect=fixed;pointerEvents=1;shape=mxgraph.aws4.authenticated_user;" vertex="1" parent="1">
          <mxGeometry x="650" y="442" width="78" height="78" as="geometry" />
        </mxCell>
        <mxCell id="vP9pcl3uwLg1Uck1mjrX-79" value="Customer" style="sketch=0;outlineConnect=0;fontColor=#232F3E;gradientColor=none;fillColor=#232F3D;strokeColor=none;dashed=0;verticalLabelPosition=bottom;verticalAlign=top;align=center;html=1;fontSize=12;fontStyle=0;aspect=fixed;pointerEvents=1;shape=mxgraph.aws4.authenticated_user;" vertex="1" parent="1">
          <mxGeometry x="142" y="458" width="78" height="78" as="geometry" />
        </mxCell>
        <mxCell id="vP9pcl3uwLg1Uck1mjrX-82" value="login/req registration" style="text;html=1;align=center;verticalAlign=middle;resizable=0;points=[];autosize=1;strokeColor=none;fillColor=none;" vertex="1" parent="1">
          <mxGeometry x="265" y="458" width="130" height="30" as="geometry" />
        </mxCell>
        <mxCell id="vP9pcl3uwLg1Uck1mjrX-83" value="Login" style="text;html=1;align=center;verticalAlign=middle;resizable=0;points=[];autosize=1;strokeColor=none;fillColor=none;" vertex="1" parent="1">
          <mxGeometry x="525" y="450" width="50" height="30" as="geometry" />
        </mxCell>
      </root>
    </mxGraphModel>
  </diagram>
</mxfile>
